<svg width="24" height="16" viewBox="0 0 24 16" fill="none" xmlns="http://www.w3.org/2000/svg">
<path d="M21.7082 1.30551H15.6292V2.97972H21.7322L21.7082 1.30551ZM20.4253 12.8231C19.9641 13.1257 19.4195 13.2792 18.8665 13.2624C18.5005 13.3002 18.1306 13.2628 17.7798 13.1524C17.4291 13.0421 17.1051 12.8613 16.8282 12.6212C16.3162 12.0464 16.0497 11.2971 16.0848 10.5314H24.0224C24.0796 9.73417 24.0108 8.93295 23.8185 8.15668C23.6325 7.41816 23.3071 6.72118 22.8593 6.10252C22.4086 5.50242 21.8265 5.01122 21.1567 4.66579C20.4114 4.30191 19.5895 4.11876 18.7586 4.13147C17.9773 4.1258 17.2026 4.27519 16.4805 4.5708C15.8192 4.84686 15.2201 5.25049 14.7179 5.75818C14.2172 6.27601 13.8295 6.89036 13.5789 7.56299C13.3099 8.28914 13.1759 9.05748 13.1832 9.83089C13.1708 10.6153 13.3008 11.3955 13.5669 12.1344C13.7929 12.8035 14.1516 13.4212 14.622 13.9511C15.1087 14.4713 15.7069 14.8771 16.3726 15.1385C17.1149 15.4185 17.9044 15.5556 18.6987 15.5422C19.8131 15.5766 20.9133 15.2877 21.8641 14.711C22.8244 14.0352 23.5158 13.0481 23.8185 11.9207H21.1687C21.0268 12.2937 20.7658 12.6105 20.4253 12.8231ZM16.3126 7.93108C16.4059 7.63505 16.5609 7.36165 16.7674 7.12851C16.9739 6.89538 17.2274 6.70766 17.5117 6.57747C17.8881 6.40968 18.298 6.32849 18.7107 6.34C19.0088 6.31478 19.3088 6.35372 19.5903 6.45415C19.8718 6.55458 20.128 6.71411 20.3413 6.92181C20.7488 7.41568 21.0102 8.01157 21.0967 8.64351H16.1208C16.1402 8.40221 16.1844 8.1635 16.2527 7.93108H16.3126ZM9.96979 7.36114C10.58 7.10949 11.1103 6.69924 11.5045 6.17376C11.8669 5.6157 12.0469 4.96066 12.0201 4.2977C12.0436 3.69314 11.9246 3.09146 11.6724 2.54039C11.4606 2.06296 11.1205 1.65226 10.6892 1.35301C10.232 1.04188 9.71273 0.83135 9.16644 0.735572C8.51995 0.601296 7.86055 0.537589 7.20004 0.545592H0.0418701V15.4828H7.35592C8.0234 15.4833 8.68822 15.3995 9.33431 15.2335C9.9467 15.0766 10.5269 14.8154 11.0489 14.4617C11.5546 14.1146 11.9663 13.6498 12.2479 13.108C12.5596 12.5022 12.7121 11.8285 12.6916 11.1489C12.7143 10.3067 12.4758 9.47789 12.0081 8.77412C11.5052 8.06635 10.7594 7.56408 9.90984 7.36114H9.96979ZM3.36317 3.09845H6.46864C6.75394 3.09811 7.03875 3.12194 7.31995 3.1697C7.57887 3.2077 7.82754 3.29651 8.05135 3.43092C8.26759 3.55205 8.44281 3.73383 8.55494 3.95337C8.69381 4.21663 8.75999 4.51155 8.74679 4.80828C8.76913 5.06385 8.72966 5.32101 8.63166 5.55847C8.53366 5.79592 8.37995 6.00684 8.18324 6.17376C7.75414 6.46589 7.24067 6.61177 6.72043 6.58934H3.36317V3.09845ZM9.16644 11.9325C9.04326 12.1745 8.85697 12.3795 8.62688 12.5262C8.38744 12.6737 8.12361 12.7782 7.84752 12.835C7.54064 12.903 7.22671 12.9349 6.91228 12.9299H3.31521V8.83349H6.91228C7.52955 8.80672 8.13914 8.97741 8.65086 9.32031C8.88205 9.52577 9.06114 9.78224 9.17362 10.069C9.28611 10.3557 9.32883 10.6646 9.29834 10.9708C9.33075 11.2972 9.28558 11.6265 9.16644 11.9325Z" fill="#604FCF"/>
</svg>
