<svg width="27" height="25" viewBox="0 0 27 25" fill="none" xmlns="http://www.w3.org/2000/svg">
<path d="M25.0876 7.77385C24.7771 7.0598 24.3838 6.38542 23.9283 5.73087C23.4728 5.09616 22.976 4.50112 22.3963 3.96558C21.8373 3.43004 21.2163 2.93417 20.5331 2.49781C19.8706 2.06144 19.146 1.68459 18.4007 1.38707C17.6348 1.08955 16.8481 0.851531 16.0407 0.692853C15.2126 0.534175 14.3637 0.454834 13.5149 0.454834C12.6661 0.454834 11.8173 0.534175 10.9892 0.692853C10.1819 0.851531 9.39515 1.08955 8.62916 1.38707C7.88387 1.68459 7.18 2.06144 6.49682 2.49781C5.83434 2.93417 5.21326 3.41021 4.63359 3.96558C4.07463 4.50112 3.55706 5.09616 3.1016 5.73087C2.64615 6.36558 2.25281 7.0598 1.94227 7.77385C1.61103 8.50773 1.3833 9.26144 1.21768 10.035C1.05206 10.8284 0.969238 11.6416 0.969238 12.4548C0.969238 13.2681 1.05206 14.0813 1.21768 14.8747C1.3833 15.6482 1.63173 16.4019 1.94227 17.1358C2.25281 17.8499 2.64615 18.5441 3.1016 19.1788C3.55706 19.8135 4.05392 20.4086 4.63359 20.9441C5.19256 21.4796 5.81364 21.9755 6.49682 22.4119C7.1593 22.8482 7.88387 23.2251 8.62916 23.5226C9.39515 23.84 10.1819 24.0581 10.9892 24.2168C11.8173 24.3755 12.6661 24.4548 13.5149 24.4548C14.3637 24.4548 15.2126 24.3755 16.0407 24.2168C16.8481 24.0581 17.6348 23.8201 18.4007 23.5226C19.146 23.2251 19.8499 22.8482 20.5331 22.4119C21.1956 21.9755 21.8166 21.4995 22.3963 20.9441C22.9553 20.4086 23.4728 19.8135 23.9283 19.1788C24.3838 18.5441 24.7771 17.8499 25.0876 17.1358C25.3982 16.4218 25.6466 15.6482 25.8122 14.8747C25.9778 14.0813 26.0607 13.2681 26.0607 12.4548C26.0607 11.6416 25.9778 10.8284 25.8122 10.035C25.6673 9.26144 25.4189 8.50773 25.0876 7.77385ZM13.5564 2.20029C16.2684 2.20029 18.732 3.17219 20.6159 4.75897C20.5952 4.79864 19.0632 7.02013 15.0262 8.46806C13.2044 5.25484 11.1963 2.69615 11.0306 2.49781C11.838 2.29946 12.6869 2.20029 13.5564 2.20029ZM10.9892 2.49781C10.9892 2.49781 10.9686 2.49781 10.9479 2.49781C10.9686 2.49781 10.9892 2.49781 10.9892 2.49781ZM9.00181 3.17219C9.14673 3.3507 11.1135 5.92921 12.9767 9.08293C7.84246 10.392 3.39144 10.3325 3.1016 10.3325C3.78479 7.15896 5.99995 4.52095 9.00181 3.17219ZM5.6066 19.2978C3.909 17.473 2.87388 15.073 2.87388 12.4548C2.87388 12.3557 2.87388 12.2367 2.87388 12.1375C3.0602 12.1375 8.33934 12.2565 13.8462 10.6697C14.1567 11.2449 14.4466 11.8201 14.7157 12.4152C14.5708 12.4548 14.4259 12.4945 14.3016 12.5342C8.52565 14.3193 5.5859 19.2978 5.6066 19.2978C5.6066 19.2978 5.5859 19.2978 5.6066 19.2978ZM13.5564 22.6896C11.0307 22.6896 8.71197 21.8565 6.86945 20.4482C6.82804 20.4284 6.78665 20.3887 6.72454 20.349C6.78665 20.3887 6.82804 20.4284 6.86945 20.4482C6.93156 20.4879 6.97296 20.5276 6.97296 20.5276C6.97296 20.5276 9.02251 16.2433 15.3575 14.121C15.3782 14.121 15.3989 14.1011 15.4196 14.1011C16.9309 17.8499 17.5519 20.9838 17.6969 21.8763C16.4547 22.4119 15.0469 22.6896 13.5564 22.6896ZM19.5394 20.9441C19.4359 20.3292 18.8562 17.3143 17.4484 13.6251C20.9057 13.0895 23.8869 14.0019 24.1146 14.0813C23.6385 16.9375 21.9409 19.397 19.5394 20.9441ZM16.8066 12.0185C16.7238 11.84 16.6617 11.6615 16.5789 11.4829C16.3512 10.9871 16.1235 10.4912 15.875 9.99534C20.0983 8.34906 21.8167 5.96889 21.8374 5.94905C23.3279 7.69451 24.2388 9.91599 24.2802 12.3557C24.0939 12.316 20.471 11.5623 16.8066 12.0185Z" fill="#604FCF"/>
</svg>
