<svg width="99" height="24" viewBox="0 0 99 24" fill="none" xmlns="http://www.w3.org/2000/svg">
<path d="M20.25 3.375H16.5C16.2016 3.375 15.9155 3.49353 15.7045 3.7045C15.4935 3.91548 15.375 4.20163 15.375 4.5C15.375 4.79837 15.4935 5.08452 15.7045 5.2955C15.9155 5.50647 16.2016 5.625 16.5 5.625H17.25V15.12L11.1103 3.95813C11.0133 3.78163 10.8707 3.63441 10.6974 3.53184C10.5241 3.42927 10.3264 3.3751 10.125 3.375H3.75C3.45163 3.375 3.16548 3.49353 2.9545 3.7045C2.74353 3.91548 2.625 4.20163 2.625 4.5C2.625 4.79837 2.74353 5.08452 2.9545 5.2955C3.16548 5.50647 3.45163 5.625 3.75 5.625H4.5V18.375H3.75C3.45163 18.375 3.16548 18.4935 2.9545 18.7045C2.74353 18.9155 2.625 19.2016 2.625 19.5C2.625 19.7984 2.74353 20.0845 2.9545 20.2955C3.16548 20.5065 3.45163 20.625 3.75 20.625H7.5C7.79837 20.625 8.08452 20.5065 8.2955 20.2955C8.50647 20.0845 8.625 19.7984 8.625 19.5C8.625 19.2016 8.50647 18.9155 8.2955 18.7045C8.08452 18.4935 7.79837 18.375 7.5 18.375H6.75V8.88L12.8897 20.0419C12.9867 20.2184 13.1293 20.3656 13.3026 20.4682C13.4759 20.5707 13.6736 20.6249 13.875 20.625H18.375C18.6734 20.625 18.9595 20.5065 19.1705 20.2955C19.3815 20.0845 19.5 19.7984 19.5 19.5V5.625H20.25C20.5484 5.625 20.8345 5.50647 21.0455 5.2955C21.2565 5.08452 21.375 4.79837 21.375 4.5C21.375 4.20163 21.2565 3.91548 21.0455 3.7045C20.8345 3.49353 20.5484 3.375 20.25 3.375ZM7.52813 5.625H9.45938L16.4719 18.375H14.5406L7.52813 5.625Z" fill="white"/>
<path d="M35.5 2.61364V21.75H33.9773V2.61364H35.5ZM54.4801 6.36364H56.2415V14.017C56.2415 14.8314 56.0502 15.553 55.6676 16.1818C55.285 16.8068 54.7472 17.2992 54.054 17.6591C53.3608 18.0152 52.5483 18.1932 51.6165 18.1932C50.6884 18.1932 49.8778 18.0152 49.1847 17.6591C48.4915 17.2992 47.9536 16.8068 47.571 16.1818C47.1884 15.553 46.9972 14.8314 46.9972 14.017V6.36364H48.7528V13.875C48.7528 14.4015 48.8684 14.8693 49.0994 15.2784C49.3343 15.6875 49.6657 16.0095 50.0938 16.2443C50.5218 16.4754 51.0294 16.5909 51.6165 16.5909C52.2074 16.5909 52.7169 16.4754 53.1449 16.2443C53.5767 16.0095 53.9063 15.6875 54.1335 15.2784C54.3646 14.8693 54.4801 14.4015 54.4801 13.875V6.36364ZM62.0156 6.36364L64.7997 10.9148H64.8906L67.6747 6.36364H69.7088L66.0838 12.1818L69.7315 18H67.6861L64.8906 13.5114H64.7997L62.0043 18H59.9588L63.669 12.1818L59.9815 6.36364H62.0156ZM77.7457 5.81818L73.9957 19.75H72.4787L76.2287 5.81818H77.7457ZM88.8082 6.36364H90.5696V14.017C90.5696 14.8314 90.3783 15.553 89.9957 16.1818C89.6132 16.8068 89.0753 17.2992 88.3821 17.6591C87.6889 18.0152 86.8764 18.1932 85.9446 18.1932C85.0166 18.1932 84.206 18.0152 83.5128 17.6591C82.8196 17.2992 82.2817 16.8068 81.8991 16.1818C81.5166 15.553 81.3253 14.8314 81.3253 14.017V6.36364H83.081V13.875C83.081 14.4015 83.1965 14.8693 83.4276 15.2784C83.6624 15.6875 83.9938 16.0095 84.4219 16.2443C84.8499 16.4754 85.3575 16.5909 85.9446 16.5909C86.5355 16.5909 87.045 16.4754 87.473 16.2443C87.9048 16.0095 88.2344 15.6875 88.4616 15.2784C88.6927 14.8693 88.8082 14.4015 88.8082 13.875V6.36364ZM96.8778 6.36364V18H95.1222V6.36364H96.8778Z" fill="white"/>
</svg>
