<svg width="25" height="25" viewBox="0 0 25 25" fill="none" xmlns="http://www.w3.org/2000/svg">
<path d="M18.3828 0.182129H6.73387C3.16225 0.182129 0.25 3.15678 0.25 6.78841V18.1213C0.25 21.7529 3.18056 24.7275 6.73387 24.7275H18.3828C21.9545 24.7275 24.8667 21.7529 24.8667 18.1213V6.78841C24.8667 3.15678 21.9545 0.182129 18.3828 0.182129ZM22.6688 17.957C22.6688 20.4754 20.654 22.5376 18.1814 22.5376H6.95366C4.481 22.5376 2.46624 20.4754 2.46624 17.957V6.95264C2.46624 4.43423 4.481 2.37205 6.95366 2.37205H18.1814C20.654 2.37205 22.6688 4.43423 22.6688 6.95264V17.957Z" fill="#604FCF"/>
<path d="M12.558 6.1499C9.1329 6.1499 6.36719 8.97849 6.36719 12.4458C6.36719 15.9314 9.1329 18.7417 12.558 18.7417C15.9831 18.7417 18.7488 15.9131 18.7488 12.4458C18.7488 8.97849 15.9831 6.1499 12.558 6.1499ZM12.558 16.5336C10.3601 16.5336 8.5651 14.7087 8.5651 12.464C8.5651 10.2194 10.3601 8.39452 12.558 8.39452C14.7559 8.39452 16.5509 10.2194 16.5509 12.464C16.5509 14.7087 14.7559 16.5336 12.558 16.5336Z" fill="#604FCF"/>
<path d="M19.0795 7.24463C19.8483 7.24463 20.4716 6.60738 20.4716 5.82129C20.4716 5.03521 19.8483 4.39795 19.0795 4.39795C18.3107 4.39795 17.6875 5.03521 17.6875 5.82129C17.6875 6.60738 18.3107 7.24463 19.0795 7.24463Z" fill="#604FCF"/>
</svg>
