<svg width="27" height="26" viewBox="0 0 27 26" fill="none" xmlns="http://www.w3.org/2000/svg">
<path d="M0.332875 9.07048H5.95856V26H0.332875V9.07048ZM3.18337 0.909729C1.25794 0.909729 0 2.17379 0 3.83292C0 5.45792 1.22112 6.75873 3.10975 6.75873H3.14563C5.10787 6.75873 6.32987 5.45786 6.32987 3.83292C6.29306 2.17379 5.10794 0.909729 3.18337 0.909729ZM19.7712 8.67279C16.785 8.67279 15.4472 10.3153 14.7009 11.4672V9.07048H9.0735C9.148 10.6587 9.0735 26 9.0735 26H14.7009V16.5454C14.7009 16.039 14.7377 15.5345 14.8857 15.1717C15.2932 14.1609 16.2191 13.114 17.7721 13.114C19.8097 13.114 20.6235 14.6672 20.6235 16.942V25.9999H26.25V16.2922C26.25 11.0923 23.4749 8.67279 19.7712 8.67279Z" fill="#604FCF"/>
</svg>
