<svg width="20" height="18" viewBox="0 0 20 18" fill="none" xmlns="http://www.w3.org/2000/svg">
<path d="M18.25 0.375H14.5C14.2016 0.375 13.9155 0.493526 13.7045 0.704505C13.4935 0.915483 13.375 1.20163 13.375 1.5C13.375 1.79837 13.4935 2.08452 13.7045 2.2955C13.9155 2.50647 14.2016 2.625 14.5 2.625H15.25V12.12L9.11031 0.958125C9.01331 0.781632 8.8707 0.634415 8.69739 0.531843C8.52407 0.429271 8.32639 0.375105 8.125 0.375H1.75C1.45163 0.375 1.16548 0.493526 0.954505 0.704505C0.743526 0.915483 0.625 1.20163 0.625 1.5C0.625 1.79837 0.743526 2.08452 0.954505 2.2955C1.16548 2.50647 1.45163 2.625 1.75 2.625H2.5V15.375H1.75C1.45163 15.375 1.16548 15.4935 0.954505 15.7045C0.743526 15.9155 0.625 16.2016 0.625 16.5C0.625 16.7984 0.743526 17.0845 0.954505 17.2955C1.16548 17.5065 1.45163 17.625 1.75 17.625H5.5C5.79837 17.625 6.08452 17.5065 6.2955 17.2955C6.50647 17.0845 6.625 16.7984 6.625 16.5C6.625 16.2016 6.50647 15.9155 6.2955 15.7045C6.08452 15.4935 5.79837 15.375 5.5 15.375H4.75V5.88L10.8897 17.0419C10.9867 17.2184 11.1293 17.3656 11.3026 17.4682C11.4759 17.5707 11.6736 17.6249 11.875 17.625H16.375C16.6734 17.625 16.9595 17.5065 17.1705 17.2955C17.3815 17.0845 17.5 16.7984 17.5 16.5V2.625H18.25C18.5484 2.625 18.8345 2.50647 19.0455 2.2955C19.2565 2.08452 19.375 1.79837 19.375 1.5C19.375 1.20163 19.2565 0.915483 19.0455 0.704505C18.8345 0.493526 18.5484 0.375 18.25 0.375ZM5.52813 2.625H7.45938L14.4719 15.375H12.5406L5.52813 2.625Z" fill="white"/>
</svg>
