<svg width="29" height="23" viewBox="0 0 29 23" fill="none" xmlns="http://www.w3.org/2000/svg">
<path d="M28.2045 0.85809C27.0814 1.48538 25.8627 1.95585 24.5483 2.20229C23.4969 1.12693 21.9914 0.454834 20.3425 0.454834C17.1643 0.454834 14.5834 2.94159 14.5834 6.01084C14.5834 6.4365 14.6312 6.86217 14.7268 7.26543C9.92355 7.0414 5.66994 4.82347 2.82623 1.46298C2.3244 2.2919 2.03764 3.23284 2.03764 4.26339C2.03764 6.19007 3.0652 7.89272 4.59459 8.87847C3.63872 8.85606 2.75454 8.60962 1.98985 8.18396V8.25116C1.98985 10.9396 3.97327 13.1799 6.62581 13.6952C6.14787 13.8296 5.62215 13.8968 5.09642 13.8968C4.71407 13.8968 4.35562 13.8744 4.02107 13.8072C4.76187 16.0027 6.88868 17.6157 9.42173 17.6605C7.4383 19.1391 4.95304 20.0353 2.25271 20.0353C1.79868 20.0353 1.32074 20.0129 0.866699 19.9681C3.42365 21.5363 6.45853 22.4548 9.70848 22.4548C20.3186 22.4548 26.1255 14.0088 26.1255 6.68294C26.1255 6.4365 26.1255 6.19008 26.1016 5.96604C27.2248 5.18193 28.2045 4.21858 28.9692 3.09842C27.9417 3.54648 26.8185 3.83773 25.6476 3.97215C26.8424 3.25524 27.7744 2.15748 28.2045 0.85809Z" fill="#604FCF"/>
</svg>
